<svg xmlns="http://www.w3.org/2000/svg" width="476.545" height="453.289" viewBox="0 0 476.545 453.289">
  <g id="그룹_111" data-name="그룹 111" transform="translate(-7334.857 -3289.007)">
    <g id="planet" transform="translate(7329.023 3254.487)">
      <path id="패스_1203" data-name="패스 1203" d="M482.38,261.17a226.3,226.3,0,0,1-91.667,182.067l-79.725,27.681-15.553-6.52L53.07,362.844a224.811,224.811,0,0,1-20.224-60.032l52.12-141.376L230.983,48.542l9.142-7.07,50.669-4.25A224.877,224.877,0,0,1,357.286,58.5L481.6,251.78l.71,6.3.06,2.12c0,.31.01.64.01.97Z" fill="#7ac2ed"/>
      <path id="패스_1205" data-name="패스 1205" d="M290.794,37.221A252.218,252.218,0,0,0,267.71,51.4C204.538,95.483,245.1,124.324,228.793,155.4c-20.344,38.762-99.128,14.28-118.372,29.321-25.675,20.061,0,102.244-77.574,118.1A226.859,226.859,0,0,1,290.794,37.221Z" fill="#d1e16f"/>
      <path id="패스_1214" data-name="패스 1214" d="M296.258,321.916c-7.141,16.339-58.722,12.608-71.332,0s-16.475-64.5,0-71.321C248.226,240.945,306.357,298.809,296.258,321.916Z" fill="#d1e16f"/>
      <path id="패스_1215" data-name="패스 1215" d="M390.713,443.237A226.807,226.807,0,0,1,53.07,362.844c89.307,0,34.106-60.032,75.514-60.032,55.33,0,48.189,89.813,78.415,105.414,29.856,15.421,52.16-16.881,94.608-16.881,32.246,0,32.6,28.1,54.59,42.952,7.891,5.32,18.573,8.94,34.516,8.94Z" fill="#d1e16f"/>
      <path id="패스_1216" data-name="패스 1216" d="M482.37,260.2c-.57-18.061-17.283-10.28-37.317-10.57-14.7-.21-31.2-4.78-44.408-27.091-31.1-52.522-105.43-13.541-105.43-78.4,0-36.061,47.1-6.51,59.241-57.322,1.8-7.52,2.831-16.8,2.831-28.311A226.6,226.6,0,0,1,482.37,260.2Z" fill="#e6f8fc"/>
    </g>
    <path id="global-network_2_" data-name="global-network (2)" d="M458.091,326.586a6.8,6.8,0,0,0,.362-.865C486.688,261.155,481.643,182,444.972,121.5c19.577-23.188-5.852-56.4-33.661-43.547-4.887-4.948-10.018-9.69-15.335-14.174,10.437-28.111-24.4-51.171-46.088-30.168C286.837,2.064,208.415,2.463,145.712,34.677c-22.306-23.421-59.766,1.691-46.261,31.077A229.339,229.339,0,0,0,77.645,87.349c-5.828,6.61,4.73,15.669,10.519,9.105a215.426,215.426,0,0,1,20.271-20.1c13.9,9.932,34.05,4.872,41.674-10.288a305.508,305.508,0,0,1,71.58,30.694,28.252,28.252,0,0,0,2.107,20.36,319.506,319.506,0,0,0-49.435,53.167,28.61,28.61,0,0,0-33.754,15.167,439.5,439.5,0,0,0-87.664,9.334,28.339,28.339,0,0,0-11.109-11.229A210.839,210.839,0,0,1,67.445,124.18c4.615-7.353-7.034-15-11.861-7.31A224.567,224.567,0,0,0,28.34,180c-33.457.563-39.074,46.423-7.223,55.245a227.657,227.657,0,0,0,77.4,171.952c-10.3,27.575,23.145,50.319,45.217,30.87,64.417,33.939,145.83,33.943,210.251.011,22.45,22,58.407-2.578,45.761-31.337a226.683,226.683,0,0,0,58.345-80.15Zm-8.8-15.476a437.308,437.308,0,0,0-63.077-51.448,28.178,28.178,0,0,0-7.071-28.507,430.421,430.421,0,0,0,44.4-99.893,28.162,28.162,0,0,0,9.958-1.784C465.666,183.3,471.548,252.688,449.292,311.11ZM127.916,389.334a301.118,301.118,0,0,1,29.963-165.374c15.858,4.9,33-5.43,36.078-21.558a420.984,420.984,0,0,1,138.061,41.705,28.223,28.223,0,0,0,4.626,23.658A421.465,421.465,0,0,1,148.7,402.249a28.258,28.258,0,0,0-20.787-12.916ZM345.093,251.119a14.25,14.25,0,0,1,14.248-14.22c18.9.78,18.9,27.664,0,28.441A14.25,14.25,0,0,1,345.093,251.119ZM437.855,103.2a14.25,14.25,0,0,1-14.248,14.22c-18.9-.78-18.9-27.664,0-28.441A14.25,14.25,0,0,1,437.855,103.2ZM400.638,86.935c-9.653,13.438-5.173,32.864,9.38,40.851a416.715,416.715,0,0,1-42.92,96.36,28.92,28.92,0,0,0-12.031-.766A321.268,321.268,0,0,0,273.94,117.122a28.221,28.221,0,0,0,2.109-20.36A305.462,305.462,0,0,1,344.87,66.867c8.029,15.358,29.566,19.694,42.937,8.2q6.647,5.666,12.832,11.871ZM234.62,104.274a14.25,14.25,0,0,1,14.248-14.22c18.9.78,18.9,27.663,0,28.44a14.25,14.25,0,0,1-14.248-14.22ZM369.705,39.341a14.25,14.25,0,0,1,14.249,14.22c-.784,18.865-27.716,18.86-28.5,0A14.25,14.25,0,0,1,369.705,39.341ZM124.86,67.781a14.25,14.25,0,0,1-14.248-14.22c.784-18.866,27.716-18.859,28.5,0A14.251,14.251,0,0,1,124.86,67.781ZM153.05,52.5a27.847,27.847,0,0,0-.782-5.6c58.463-29.955,131.5-30.477,190.411-1.393a27.816,27.816,0,0,0-1.185,7.908,319.549,319.549,0,0,0-72.386,31.333,28.626,28.626,0,0,0-40.478,0A319.6,319.6,0,0,0,153.05,52.5Zm79.993,74.993a28.535,28.535,0,0,0,31.649,0,307.347,307.347,0,0,1,77.529,101.342,28.438,28.438,0,0,0-3.475,3.132,434.986,434.986,0,0,0-145.722-43.623,28.058,28.058,0,0,0-6.672-10.844,305.516,305.516,0,0,1,46.691-50.009Zm-66.8,55.445a14.25,14.25,0,0,1,14.248,14.22c-.784,18.866-27.716,18.86-28.5,0A14.252,14.252,0,0,1,166.242,182.937ZM13.837,208.049a14.25,14.25,0,0,1,14.248-14.22c18.9.78,18.9,27.663,0,28.44a14.249,14.249,0,0,1-14.248-14.22Zm21.247,27.185s21.213-4.584,21.213-27c0,0,54.433-8.621,81.82-8.924a27.891,27.891,0,0,0,7.835,17.319A314.82,314.82,0,0,0,114.077,391.3a28.3,28.3,0,0,0-7.44,4.527c-45.564-40.442-71.553-108.2-71.553-160.592Zm89.776,196.21a14.22,14.22,0,1,1,0-28.441,14.5,14.5,0,0,1,14.249,14.22A14.251,14.251,0,0,1,124.86,431.445Zm124.009,18.339A214.888,214.888,0,0,1,151.5,426.47a28.536,28.536,0,0,0,1.516-11.052A435.387,435.387,0,0,0,347.438,276.551a28.384,28.384,0,0,0,13.394,2.588,303.1,303.1,0,0,1,7.292,34.691c1.331,8.911,15.152,6.92,13.818-2.024a316.833,316.833,0,0,0-7.773-36.828,28.322,28.322,0,0,0,4.635-3.572,423.131,423.131,0,0,1,64.718,53.589,212.926,212.926,0,0,1-52.55,70.955A28.237,28.237,0,0,0,383.579,392a318.677,318.677,0,0,0,1.769-38.7c-.142-9.04-14.108-8.828-13.966.214a304.943,304.943,0,0,1-1.71,37.2c-16.472,2.6-27.245,19.518-22.706,35.378a214.85,214.85,0,0,1-98.1,23.689ZM374.1,432.648a14.25,14.25,0,0,1-14.248-14.22c.784-18.866,27.716-18.859,28.5,0A14.25,14.25,0,0,1,374.1,432.648Z" transform="translate(7334.855 3278.777)"/>
  </g>
</svg>
